<svg xmlns="http://www.w3.org/2000/svg" version="1.1" xmlns:xlink="http://www.w3.org/1999/xlink" width="512" height="512" x="0" y="0" viewBox="0 0 512 512" style="enable-background:new 0 0 512 512" xml:space="preserve" class=""><g><path d="M86.894 111.894h0a260.513 260.513 0 0 1-30.054 70.127l-15.974 25.948a2.24 2.24 0 0 0 .924 3.186l26.312 12.86a89.535 89.535 0 0 0 78.453.086l26.64-12.948a2.24 2.24 0 0 0 .928-3.188l-15.992-25.977a260.541 260.541 0 0 1-30.034-70.051l-.013-.048a21.301 21.301 0 0 0-20.685-15.861h0a21.3 21.3 0 0 0-20.505 15.866zM107.496 42.365v52.42M299.53 195.817l-88.11-88.11M186.67 82.957l-52.11-52.11c-3.1-3.09-7.15-4.64-11.21-4.64-4.06 0-8.11 1.55-11.21 4.64-6.19 6.19-6.19 16.23 0 22.42l142.74 142.75" style="stroke-width:15;stroke-linecap:round;stroke-linejoin:round;stroke-miterlimit:10;" fill="none" stroke="#0095CF" stroke-width="15" stroke-linecap="round" stroke-linejoin="round" stroke-miterlimit="10" data-original="#000000" opacity="1"></path><path d="M60.753 179.334c24.164 14.605 68.945 14.605 93.109 0M78.875 141.787c14.758 8.919 42.107 8.919 56.865 0M107.955 233.102V99.444M397.25 196.847h15.12c12.85 0 24.27 8.19 28.4 20.36l20.9 61.57M191.95 276.837l23.32-73.03a10.02 10.02 0 0 1 9.53-6.96h137.45M299.335 245.828v-15.811M350.335 245.828v-15.811M401.335 245.828v-15.811M248.335 245.828v-15.811M9.77 350.417c-.75-4.34-1.22-8.74-1.43-13.18l-.69-14.9a2.996 2.996 0 0 1 2.99-3.14H291.34c4.07 0 7.97-1.61 10.85-4.49l29.99-29.99c2.88-2.88 6.78-4.5 10.85-4.5h156.76c2.47 0 4.35 2.22 3.95 4.65l-1.86 11.27c-1.12 6.82-2.62 13.53-4.49 20.12M438.27 406.567a180.955 180.955 0 0 0 46.32-57.68M45.61 414.677a109.553 109.553 0 0 1-24.58-31.11" style="stroke-width:15;stroke-linecap:round;stroke-linejoin:round;stroke-miterlimit:10;" fill="none" stroke="#0095CF" stroke-width="15" stroke-linecap="round" stroke-linejoin="round" stroke-miterlimit="10" data-original="#000000" opacity="1"></path><path d="M7.5 435.793c31.064 0 31.064-28 62.129-28s31.064 28 62.129 28c31.063 0 31.063-28 62.126-28 31.062 0 31.062 28 62.124 28 31.061 0 31.061-28 62.121-28 31.062 0 31.062 28 62.124 28s31.062-28 62.125-28c31.061 0 31.061 28 62.122 28M504.5 485.793c-31.061 0-31.061-28-62.122-28-31.062 0-31.062 28-62.125 28-31.062 0-31.062-28-62.124-28-31.061 0-31.061 28-62.121 28-31.062 0-31.062-28-62.124-28-31.063 0-31.063 28-62.126 28-31.065 0-31.065-28-62.129-28s-31.064 28-62.129 28" style="stroke-width:15;stroke-linecap:round;stroke-linejoin:round;stroke-miterlimit:10;" fill="none" stroke="#0095CF" stroke-width="15" stroke-linecap="round" stroke-linejoin="round" stroke-miterlimit="10" data-original="#000000" opacity="1"></path><circle cx="318.453" cy="364.824" r="14.965" style="stroke-width:15;stroke-linecap:round;stroke-linejoin:round;stroke-miterlimit:10;" fill="none" stroke="#0095CF" stroke-width="15" stroke-linecap="round" stroke-linejoin="round" stroke-miterlimit="10" data-original="#000000" opacity="1"></circle><circle cx="244.539" cy="364.824" r="14.965" style="stroke-width:15;stroke-linecap:round;stroke-linejoin:round;stroke-miterlimit:10;" fill="none" stroke="#0095CF" stroke-width="15" stroke-linecap="round" stroke-linejoin="round" stroke-miterlimit="10" data-original="#000000" opacity="1"></circle><circle cx="170.625" cy="364.824" r="14.965" style="stroke-width:15;stroke-linecap:round;stroke-linejoin:round;stroke-miterlimit:10;" fill="none" stroke="#0095CF" stroke-width="15" stroke-linecap="round" stroke-linejoin="round" stroke-miterlimit="10" data-original="#000000" opacity="1"></circle><circle cx="96.712" cy="364.824" r="14.965" style="stroke-width:15;stroke-linecap:round;stroke-linejoin:round;stroke-miterlimit:10;" fill="none" stroke="#0095CF" stroke-width="15" stroke-linecap="round" stroke-linejoin="round" stroke-miterlimit="10" data-original="#000000" opacity="1"></circle><path d="M21.11 317.999v-27.778c0-5.523 4.477-10 10-10h239.376c5.523 0 10 4.477 10 10v28.981M85.954 282.32v35.449M150.798 282.32v35.449M215.642 282.32v35.449M397.253 349.917v36.276M376.265 372.907c7.308 19.341 34.668 19.341 41.976 0M385.259 346.154h23.989" style="stroke-width:15;stroke-linecap:round;stroke-linejoin:round;stroke-miterlimit:10;" fill="none" stroke="#0095CF" stroke-width="15" stroke-linecap="round" stroke-linejoin="round" stroke-miterlimit="10" data-original="#000000" opacity="1"></path></g></svg>