<svg xmlns="http://www.w3.org/2000/svg" version="1.1" xmlns:xlink="http://www.w3.org/1999/xlink" width="512" height="512" x="0" y="0" viewBox="0 0 64 64" style="enable-background:new 0 0 512 512" xml:space="preserve"><g><path d="M37.69 38.3 28 35.26v-1.47A11.028 11.028 0 0 0 33.95 25H34a3.991 3.991 0 0 0 .31-7.97 13.318 13.318 0 0 0 3.59-2.09 1 1 0 0 0-.05-1.56L34 10.49V8.28a5 5 0 0 0-4.02-4.9l-6-1.2a4.974 4.974 0 0 0-1.96 0l-6 1.2A5 5 0 0 0 12 8.28v2.21l-3.85 2.89a1 1 0 0 0-.05 1.56 13.318 13.318 0 0 0 3.59 2.09A3.991 3.991 0 0 0 12 25h.05a10.919 10.919 0 0 0 3.17 6.78A11.064 11.064 0 0 0 18 33.79v1.47l-9.69 3.03A8.963 8.963 0 0 0 2 46.88V61a1 1 0 0 0 1 1h40a1 1 0 0 0 1-1V46.88a8.941 8.941 0 0 0-6.31-8.58ZM36 21a2.015 2.015 0 0 1-2 2v-4a2.006 2.006 0 0 1 2 2ZM14 8.28a3 3 0 0 1 2.41-2.94l6-1.2a2.931 2.931 0 0 1 1.18 0l6 1.2A3 3 0 0 1 32 8.28v2.71c-.16.55-3.16 2.01-9 2.01s-8.84-1.46-9-2.01ZM12 23a2.015 2.015 0 0 1-2-2 2.006 2.006 0 0 1 2-2Zm-1.57-8.83 2.24-1.68C14.31 14.2 18.78 15 23 15s8.69-.8 10.33-2.51l2.24 1.68C32.77 15.91 28.04 17 23 17s-9.77-1.09-12.57-2.83Zm6.21 16.19A8.942 8.942 0 0 1 14 24v-6.18A33.022 33.022 0 0 0 23 19a33.022 33.022 0 0 0 9-1.18V24a8.994 8.994 0 0 1-15.36 6.36ZM26 34.57V36a3 3 0 0 1-6 0v-1.42a10.8 10.8 0 0 0 6-.01Zm-9 3.1 1.19-.37a4.977 4.977 0 0 0 9.62 0l1.19.37V43a3.009 3.009 0 0 1-3 3h-6a3.009 3.009 0 0 1-3-3ZM10 60H4V46.88a6.964 6.964 0 0 1 4.91-6.68l1.09-.34Zm12 0H12v-8h10Zm0-10H12V39.24l3-.94V43a5 5 0 0 0 5 5h2Zm12 10H24v-8h10Zm0-10H24v-2h2a5 5 0 0 0 5-5v-4.7l3 .94Zm8 10h-6V39.86l1.09.35A6.943 6.943 0 0 1 42 46.88Z" fill="#0095CF" opacity="1" data-original="#000000"></path><circle cx="19" cy="21" r="2" fill="#0095CF" opacity="1" data-original="#000000"></circle><circle cx="27" cy="21" r="2" fill="#0095CF" opacity="1" data-original="#000000"></circle><path d="m26.307 27.75-1.323-1.5a3.076 3.076 0 0 1-3.968 0l-1.323 1.5a5 5 0 0 0 6.614 0ZM61.83 32.45 58 26.7v-4.88a2.988 2.988 0 0 0 0-5.64V14a5 5 0 0 0-10 0v30h-1a1 1 0 0 0-1 1v16a1 1 0 0 0 1 1h4a1 1 0 0 0 1-1V45a1 1 0 0 0-1-1h-1V14a3 3 0 1 1 6 0v2.18a2.988 2.988 0 0 0 0 5.64v4.88l-3.83 5.75a.963.963 0 0 0 0 1.1l3.65 5.48-2.68 4.46A1 1 0 0 0 54 45h6a1 1 0 0 0 .86-1.51l-2.68-4.46 3.65-5.48a.963.963 0 0 0 0-1.1ZM50 60h-2V50h2Zm0-12h-2v-2h2Zm7-30a1 1 0 1 1-1 1 1 1 0 0 1 1-1Zm1.23 25h-2.46L57 40.94ZM57 37.2 54.2 33l2.8-4.2 2.8 4.2Z" fill="#0095CF" opacity="1" data-original="#000000"></path></g></svg>