<svg xmlns="http://www.w3.org/2000/svg" version="1.1" xmlns:xlink="http://www.w3.org/1999/xlink" width="512" height="512" x="0" y="0" viewBox="0 0 511.996 511.996" style="enable-background:new 0 0 512 512" xml:space="preserve" class=""><g><path d="M347.297 225.938h62.092M441.209 225.938h63.287v72.566H252.19v-72.566h63.286M504.496 407.51v43.18h-230.71M252.186 378.11v-79.6h252.31v93.75" style="stroke-width:15;stroke-miterlimit:10;" fill="none" stroke="#0095CF" stroke-width="15" stroke-miterlimit="10" data-original="#000000" opacity="1"></path><path d="M315.474 198.374h31.823v55.135h-31.823zM409.389 198.374h31.823v55.135h-31.823zM350.736 377.05l19.06 15.775 36.153-36.457M476.092 423.126h-14.763M446.11 423.126h-14.764M48.284 445.027v59.469M233.381 445.027v59.469M140.852 384.328h-.031L118.9 404.186l9.989 23.687h23.895l9.981-23.68zM152.784 427.873h-23.895l-7.675 76.623h38.593z" style="stroke-width:15;stroke-miterlimit:10;" fill="none" stroke="#0095CF" stroke-width="15" stroke-miterlimit="10" data-original="#000000" opacity="1"></path><path d="M193.734 504.494H7.501V408.12c0-13.823 9.001-25.646 20.731-29.592.271-.085.55-.178.837-.271 12.218-3.993 34.484-11.745 53.114-16.444 8.854-2.233 14.126-3.248 26.716-6.946M172.766 354.866c28.871 8.381 22.157 3.962 80.667 23.661 11.73 3.946 20.35 15.769 20.35 29.592v96.375h-65.085" style="stroke-width:15;stroke-miterlimit:10;" fill="none" stroke="#0095CF" stroke-width="15" stroke-miterlimit="10" data-original="#000000" opacity="1"></path><path d="m140.825 384.326-35.756 32.407-22.886-54.921c8.852-2.232 14.122-3.251 26.716-6.946l31.926 29.46zM172.766 354.866l-31.926 29.46 35.748 32.407 22.886-54.928z" style="stroke-width:15;stroke-miterlimit:10;" fill="none" stroke="#0095CF" stroke-width="15" stroke-miterlimit="10" data-original="#000000" opacity="1"></path><path d="M172.766 322.793v32.073l-31.926 29.46h-.015l-31.926-29.46v-32.197M377.967 50.361v35.445h26.819" style="stroke-width:15;stroke-miterlimit:10;" fill="none" stroke="#0095CF" stroke-width="15" stroke-miterlimit="10" data-original="#000000" opacity="1"></path><path d="M449.92 60.035a74.967 74.967 0 0 1 3.423 22.465c0 41.421-33.579 75-75 75s-75-33.579-75-75 33.579-75 75-75c33.595 0 62.031 22.089 71.577 52.535M153.798 272.336v5.356c0 7.799-6.322 14.121-14.121 14.121s-14.121-6.322-14.121-14.121v-5.356M117.293 246.691h-15.656M177.718 246.691h-15.657M75.742 220.053H61.408V180.12c0-15.618 12.256-28.369 27.669-29.163 0-15.288 12.393-27.681 27.681-27.681h65.92c20.545 0 37.2 16.655 37.2 37.2v59.795h-16.7" style="stroke-width:15;stroke-miterlimit:10;" fill="none" stroke="#0095CF" stroke-width="15" stroke-miterlimit="10" data-original="#000000" opacity="1"></path><path d="M75.888 270.445V221.425c0-24.49 19.853-44.343 44.343-44.343h15.614c0 23.853 19.337 43.19 43.19 43.19h26.363v50.177c0 11.49-3.427 22.359-9.35 31.507-5.753 8.908-13.862 16.188-23.475 20.832a55.888 55.888 0 0 1-22.01 5.535 49.2 49.2 0 0 1-2.403.054c-.38.016-13.955.008-14.335.008a57.682 57.682 0 0 1-25.119-5.721 58.222 58.222 0 0 1-23.793-21.157c-5.714-8.97-9.024-19.622-9.024-31.057" style="stroke-width:15;stroke-miterlimit:10;" fill="none" stroke="#0095CF" stroke-width="15" stroke-miterlimit="10" data-original="#000000" opacity="1"></path></g></svg>