<svg xmlns="http://www.w3.org/2000/svg" version="1.1" xmlns:xlink="http://www.w3.org/1999/xlink" width="512" height="512" x="0" y="0" viewBox="0 0 512 512" style="enable-background:new 0 0 512 512" xml:space="preserve"><g><path d="M251.002 24.282c-106.916 0-193.899 86.984-193.899 193.899 0 124.001 113.604 166.435 185.821 265.432 3.994 5.479 12.167 5.469 16.156 0 72.215-98.986 185.819-141.44 185.819-265.432 0-106.915-86.979-193.899-193.897-193.899zm0 436.879C177.725 367.843 77.104 327.596 77.104 218.182c0-95.889 78.009-173.898 173.898-173.898 95.892 0 173.896 78.009 173.896 173.898-.001 109.423-100.606 149.635-173.896 242.979zM61.002 385.986C44.457 385.986 31 399.443 31 415.988c0 16.54 13.457 29.998 30.002 29.998 16.541 0 29.998-13.458 29.998-29.998 0-16.545-13.458-30.002-29.998-30.002zm0 40.003c-5.513 0-10-4.487-10-10.001 0-5.513 4.487-10 10-10 5.514 0 10.001 4.487 10.001 10 0 5.514-4.487 10.001-10.001 10.001z" fill="#0095CF" opacity="1" data-original="#000000"></path><path d="M426.003 85.99c13.786 0 25.002-11.216 25.002-25.002 0-13.781-11.216-24.997-25.002-24.997-13.785 0-25.002 11.216-25.002 24.997 0 13.786 11.217 25.002 25.002 25.002zm0-30.002a5.007 5.007 0 0 1 5.001 5c0 2.759-2.241 5-5.001 5-2.759 0-5-2.241-5-5 0-2.754 2.241-5 5-5zM446.005 325.986c-19.305 0-35.003 15.703-35.003 35.003 0 19.294 15.698 34.998 35.003 34.998 19.294 0 34.993-15.704 34.993-34.998 0-19.3-15.699-35.003-34.993-35.003zm0 49.999c-8.277 0-15.001-6.729-15.001-14.996 0-8.272 6.724-15.001 15.001-15.001 8.268 0 15.001 6.729 15.001 15.001 0 8.268-6.734 14.996-15.001 14.996zM401.001 405.988c-5.518 0-10 4.477-10 10 0 5.519 4.482 10.001 10 10.001 5.519 0 10.001-4.482 10.001-10.001 0-5.523-4.482-10-10.001-10zM130.998 425.989c-5.518 0-9.996 4.473-9.996 9.996s4.478 10.001 9.996 10.001c5.523 0 10.001-4.478 10.001-10.001s-4.478-9.996-10.001-9.996z" fill="#0095CF" opacity="1" data-original="#000000"></path><circle cx="41" cy="335.987" r="10.001" fill="#0095CF" opacity="1" data-original="#000000"></circle><path d="M61.002 65.989c5.523 0 9.996-4.478 9.996-10.001 0-5.518-4.473-9.996-9.996-9.996s-10 4.478-10 9.996c-.001 5.523 4.477 10.001 10 10.001zM461.006 135.989c5.519 0 10.001-4.478 10.001-10.001s-4.482-9.996-10.001-9.996c-5.528 0-10.001 4.472-10.001 9.996s4.473 10.001 10.001 10.001zM251.002 82.115c-75.025 0-136.066 61.036-136.066 136.066 0 49.832 27.313 95.657 71.281 119.594 4.851 2.635 10.922.847 13.567-4.004 2.64-4.852.847-10.923-4.004-13.563-37.528-20.43-60.841-59.523-60.841-102.027 0-63.999 52.065-116.07 116.064-116.07 63.997 0 116.063 52.071 116.063 116.07 0 63.992-52.065 116.058-116.063 116.058-5.523 0-10 4.478-10 10.001s4.477 10 10 10c75.023 0 136.064-61.035 136.064-136.059-.001-75.03-61.042-136.066-136.065-136.066z" fill="#0095CF" opacity="1" data-original="#000000"></path><path d="M319.411 229.358c0-33.877-40.421-67.739-59.668-98.653a9.994 9.994 0 0 0-16.973-.006c-19.523 31.317-60.149 64.313-60.149 98.658 0 37.705 30.69 68.379 68.407 68.379 37.703.001 68.383-30.673 68.383-68.378zm-116.789 0c0-21.59 29.051-49.456 48.619-75.733 19.352 26.112 48.169 54.496 48.169 75.733 0 26.68-21.705 48.377-48.383 48.377-26.69 0-48.405-21.697-48.405-48.377z" fill="#0095CF" opacity="1" data-original="#000000"></path><path d="M261.003 253.593c0-5.523-4.478-10-10.001-10-9.712 0-17.616-7.894-17.616-17.601 0-5.523-4.478-10.001-10.001-10.001s-10 4.478-10 10.001c0 20.733 16.874 37.6 37.617 37.6 5.523-.001 10.001-4.476 10.001-9.999z" fill="#0095CF" opacity="1" data-original="#000000"></path></g></svg>